<svg xmlns="http://www.w3.org/2000/svg" width="44" height="44" viewBox="0 0 44 44" fill="black"><path opacity="0.2" d="M39.6002 3.93357C39.6002 3.38881 39.1585 2.94727 38.6138 2.94727H5.38605C4.84129 2.94727 4.39966 3.3889 4.39966 3.93357V10.816H39.6002V3.93357ZM9.59724 6.91586C9.59724 7.62777 9.02009 8.20492 8.30818 8.20492C7.59628 8.20492 7.01912 7.62777 7.01912 6.91586V6.83912C7.01912 6.12721 7.59628 5.55005 8.30818 5.55005C9.02009 5.55005 9.59724 6.12721 9.59724 6.83912V6.91586ZM14.7535 6.91586C14.7535 7.62777 14.1763 8.20492 13.4644 8.20492C12.7525 8.20492 12.1754 7.62777 12.1754 6.91586V6.83912C12.1754 6.12721 12.7525 5.55005 13.4644 5.55005C14.1763 5.55005 14.7535 6.12721 14.7535 6.83912V6.91586ZM19.9098 6.91586C19.9098 7.62777 19.3327 8.20492 18.6208 8.20492C17.9089 8.20492 17.3317 7.62777 17.3317 6.91586V6.83912C17.3317 6.12721 17.9089 5.55005 18.6208 5.55005C19.3327 5.55005 19.9098 6.12721 19.9098 6.83912V6.91586Z"></path><path d="M4.39966 13.394H39.6002V18.0465H4.39966V13.394Z"></path><path d="M4.39966 40.0658C4.39966 40.6105 4.84129 41.0521 5.38605 41.0521H38.6138C39.1585 41.0521 39.6002 40.6104 39.6002 40.0658V36.085H4.39966V40.0658Z" fill="#CCCCCC"></path><path d="M42.7109 20.625H1.28906C0.577156 20.625 0 21.2022 0 21.9141V32.2181C0 32.93 0.577156 33.5072 1.28906 33.5072H42.7109C43.4228 33.5072 44 32.93 44 32.2181V21.9141C44 21.2022 43.4228 20.625 42.7109 20.625ZM14.7582 27.698L13.7583 28.019L14.3927 28.9119C14.8051 29.4923 14.6689 30.297 14.0885 30.7093C13.862 30.8703 13.6012 30.9476 13.343 30.9476C12.9397 30.9476 12.5425 30.759 12.2911 30.4052L11.6874 29.5555L11.0837 30.4053C10.8323 30.759 10.4351 30.9477 10.0318 30.9477C9.77359 30.9477 9.51285 30.8704 9.28632 30.7094C8.7059 30.2971 8.56977 29.4924 8.9821 28.912L9.61658 28.0191L8.6167 27.698C7.93882 27.4804 7.56577 26.7545 7.78336 26.0766C8.00104 25.3987 8.72678 25.0258 9.40483 25.2433L10.3984 25.5623V24.4737C10.3984 23.7618 10.9756 23.1846 11.6875 23.1846C12.3994 23.1846 12.9766 23.7618 12.9766 24.4737V25.5623L13.9702 25.2433C14.6481 25.0256 15.374 25.3987 15.5916 26.0766C15.8091 26.7544 15.4361 27.4804 14.7582 27.698ZM25.0708 27.698L24.0709 28.019L24.7053 28.9119C25.1176 29.4923 24.9815 30.297 24.4011 30.7093C24.1746 30.8703 23.9138 30.9476 23.6556 30.9476C23.2523 30.9476 22.8551 30.759 22.6037 30.4052L22 29.5555L21.3962 30.4053C21.1448 30.759 20.7476 30.9477 20.3443 30.9477C20.0861 30.9477 19.8254 30.8704 19.5988 30.7094C19.0185 30.2971 18.8823 29.4924 19.2946 28.912L19.9291 28.0191L18.9292 27.698C18.2513 27.4804 17.8783 26.7545 18.0959 26.0766C18.3135 25.3987 19.0395 25.0258 19.7173 25.2433L20.7109 25.5623V24.4737C20.7109 23.7618 21.2881 23.1846 22 23.1846C22.7119 23.1846 23.2891 23.7618 23.2891 24.4737V25.5623L24.2827 25.2433C24.9606 25.0256 25.6865 25.3987 25.9041 26.0766C26.1217 26.7544 25.7487 27.4804 25.0708 27.698ZM35.3834 27.698L34.3835 28.019L35.0179 28.9119C35.4302 29.4923 35.2941 30.297 34.7137 30.7093C34.4871 30.8703 34.2264 30.9476 33.9682 30.9476C33.5649 30.9476 33.1677 30.759 32.9163 30.4052L32.3126 29.5555L31.7088 30.4053C31.4574 30.759 31.0602 30.9477 30.6569 30.9477C30.3987 30.9477 30.1379 30.8704 29.9114 30.7094C29.331 30.2971 29.1949 29.4924 29.6072 28.912L30.2417 28.0191L29.2418 27.698C28.5639 27.4804 28.1909 26.7545 28.4084 26.0766C28.626 25.3987 29.352 25.0258 30.0299 25.2433L31.0235 25.5623V24.4737C31.0235 23.7618 31.6007 23.1846 32.3126 23.1846C33.0245 23.1846 33.6016 23.7618 33.6016 24.4737V25.5623L34.5953 25.2433C35.2734 25.0256 35.999 25.3987 36.2167 26.0766C36.4343 26.7544 36.0613 27.4804 35.3834 27.698Z"></path></svg>