<svg xmlns="http://www.w3.org/2000/svg" width="60" height="60" viewBox="0 0 60 60" fill="black"><g clip-path="url(#clip0_357_1698)"><path opacity="0.2" d="M25.2568 14.5879C25.2568 20.1972 28.268 25.1329 30.0558 27.5687C31.8431 25.1262 34.8603 20.1749 34.8603 14.5879V10.5532H25.2568V14.5879Z"></path><path opacity="0.2" d="M42.2541 25.5869L36.7932 22.614C35.8597 25.0296 34.6628 27.0855 33.6279 28.6173H42.2541V25.5869Z"></path><path d="M58.2422 6.9878C53.0477 6.99436 45.9122 6.99436 38.269 6.99237C38.3385 7.42432 38.3759 7.86683 38.3759 8.31812V14.5879C38.3759 16.1858 38.1769 17.7266 37.846 19.1845L44.8519 22.9985C45.4173 23.3063 45.7692 23.8987 45.7692 24.5424V30.3752C45.7692 31.346 44.9822 32.133 44.0114 32.133H34.6066C35.5616 33.3669 36.3282 34.892 36.3282 36.61C36.3282 40.9089 31.5306 44.0013 30.9834 44.3397C30.7001 44.515 30.3795 44.6027 30.0586 44.6027C29.7378 44.6027 29.4171 44.515 29.1337 44.3397C28.5866 44.0013 23.789 40.9089 23.789 36.61C23.789 34.892 24.5555 33.3669 25.5106 32.133H16.1058C15.135 32.133 14.348 31.346 14.348 30.3752V24.4355C14.348 23.788 14.704 23.1928 15.2745 22.8866L22.2608 19.1368C21.9361 17.693 21.7411 16.1683 21.7411 14.5878V8.31812C21.7411 7.86495 21.7789 7.42057 21.8491 6.98686C14.1607 6.98428 6.97834 6.98311 1.75783 6.98792C0.787037 6.98792 0 7.77495 0 8.74574V50.0495C0 51.0203 0.787037 51.8073 1.75783 51.8073H16.461C17.7734 51.7156 18.944 52.8585 18.9135 54.1745C18.9476 55.4807 17.7887 56.6143 16.4884 56.4836H11.192C10.2212 56.4836 9.43414 57.2706 9.43414 58.2414C9.43414 59.2122 10.2212 59.9993 11.192 59.9993H48.9252C49.896 59.9993 50.6831 59.2122 50.6831 58.2414C50.6831 57.2706 49.896 56.4836 48.9252 56.4836H43.6288C40.533 56.6587 40.4021 51.9557 43.4429 51.8086L58.2422 51.8072C59.213 51.8072 60 51.0202 60 50.0494V8.74562C60 7.77484 59.213 6.9878 58.2422 6.9878Z"></path><path opacity="0.2" d="M17.8633 28.6175H26.4894C25.4476 27.0755 24.2417 25.0026 23.3056 22.5662L17.8633 25.4872V28.6175Z"></path><path d="M27.3047 36.61C27.3047 38.1399 28.8809 39.7431 30.0556 40.683C31.2303 39.7387 32.8125 38.1282 32.8125 36.61C32.8125 35.0938 31.2341 33.4854 30.0585 32.5398C28.884 33.4845 27.3047 35.0933 27.3047 36.61Z"></path><path d="M38.2686 6.99243C37.6317 3.03427 34.1931 0.000732422 30.0581 0.000732422C25.925 0.000732422 22.4879 3.03134 21.8486 6.9868C23.0373 6.98727 37.0802 6.99219 38.2686 6.99243Z"></path></g><defs><clipPath id="clip0_357_1698"><rect width="60" height="60" fill="white"></rect></clipPath></defs></svg>