<svg xmlns="http://www.w3.org/2000/svg" width="60" height="60" viewBox="0 0 60 60" fill="black"><path opacity="0.2" d="M46.0656 3.03783C46.0656 2.29498 45.4634 1.69287 44.7205 1.69287H1.34508C0.602227 1.69287 0 2.2951 0 3.03783V12.4229H46.0656V3.03783ZM8.25938 7.10459C8.25938 8.07537 7.47234 8.8624 6.50156 8.8624C5.53078 8.8624 4.74375 8.07537 4.74375 7.10459V6.99994C4.74375 6.02916 5.53078 5.24213 6.50156 5.24213C7.47234 5.24213 8.25938 6.02916 8.25938 6.99994V7.10459ZM15.2906 7.10459C15.2906 8.07537 14.5036 8.8624 13.5328 8.8624C12.562 8.8624 11.775 8.07537 11.775 7.10459V6.99994C11.775 6.02916 12.562 5.24213 13.5328 5.24213C14.5036 5.24213 15.2906 6.02916 15.2906 6.99994V7.10459ZM22.3219 7.10459C22.3219 8.07537 21.5348 8.8624 20.5641 8.8624C19.5933 8.8624 18.8063 8.07537 18.8063 7.10459V6.99994C18.8063 6.02916 19.5933 5.24213 20.5641 5.24213C21.5348 5.24213 22.3219 6.02916 22.3219 6.99994V7.10459Z"></path><path opacity="0.2" d="M20.3545 37.7509C20.3545 41.3389 22.7171 44.375 25.9715 45.3885V30.113C22.7171 31.1266 20.3545 34.1627 20.3545 37.7509Z"></path><path d="M29.4873 56.5495C29.4873 57.5203 30.2743 58.3073 31.2451 58.3073H35.5219C36.4927 58.3073 37.2797 57.5203 37.2806 56.5495V49.2646H29.4873V56.5495Z"></path><path d="M29.4873 29.7524H37.2806V45.749H29.4873V29.7524Z"></path><path d="M46.0656 15.9387H0V44.2235C0 44.9663 0.602227 45.5685 1.34508 45.5685H19.9005C19.6289 45.2739 19.3697 44.9654 19.1268 44.6403C17.6299 42.638 16.8388 40.2558 16.8388 37.751C16.8388 35.2462 17.6299 32.8639 19.1268 30.8617C20.5923 28.9013 22.5976 27.4817 24.926 26.7567C26.0317 26.4122 27.183 26.237 28.3412 26.237H37.2804L46.0657 23.6464V15.9387H46.0656Z"></path><path d="M57.7086 23.8786L40.7959 28.7417V46.7599L57.7086 51.623C58.8424 51.9843 60 51.1382 60 49.9482V25.5536C60 24.3635 58.8424 23.5174 57.7086 23.8786Z"></path></svg>