<svg width="241" height="247" viewBox="0 0 241 247" fill="#8EB3A2" stroke="#4F7661" xmlns="http://www.w3.org/2000/svg">
<path d="M112.174 6.0487C116.279 0.382798 124.721 0.382797 128.826 6.0487L136.054 16.0237C139.961 21.4168 147.258 23.0824 153.119 19.9188L163.958 14.0673C170.115 10.7437 177.722 14.4068 178.962 21.2927L181.146 33.4157C182.326 39.9701 188.178 44.6369 194.831 44.3293L207.136 43.7605C214.125 43.4374 219.389 50.038 217.519 56.7802L214.226 68.65C212.446 75.0675 215.693 81.8112 221.821 84.4206L233.154 89.247C239.591 91.9884 241.47 100.219 236.859 105.482L228.743 114.748C224.354 119.758 224.354 127.242 228.743 132.252L236.859 141.518C241.47 146.781 239.591 155.012 233.154 157.753L221.821 162.579C215.693 165.189 212.446 171.933 214.226 178.35L217.519 190.22C219.389 196.962 214.125 203.563 207.136 203.24L194.831 202.671C188.178 202.363 182.326 207.03 181.146 213.584L178.962 225.707C177.722 232.593 170.115 236.256 163.958 232.933L153.119 227.081C147.258 223.918 139.961 225.583 136.054 230.976L128.826 240.951C124.721 246.617 116.279 246.617 112.174 240.951L104.946 230.976C101.039 225.583 93.7416 223.918 87.8812 227.081L77.0416 232.933C70.8847 236.256 63.2782 232.593 62.0379 225.707L59.8544 213.584C58.6739 207.03 52.8219 202.363 46.1692 202.671L33.8643 203.24C26.875 203.563 21.6112 196.962 23.4814 190.22L26.7741 178.35C28.5543 171.933 25.3067 165.189 19.1794 162.579L7.84625 157.753C1.40893 155.012 -0.46972 146.781 4.14065 141.518L12.2574 132.252C16.6457 127.242 16.6457 119.758 12.2574 114.748L4.14065 105.482C-0.469719 100.219 1.40893 91.9884 7.84625 89.247L19.1794 84.4206C25.3067 81.8112 28.5543 75.0675 26.7741 68.65L23.4814 56.7802C21.6112 50.038 26.875 43.4374 33.8643 43.7605L46.1692 44.3293C52.8219 44.6369 58.6739 39.9701 59.8544 33.4157L62.038 21.2927C63.2782 14.4068 70.8847 10.7437 77.0416 14.0673L87.8812 19.9188C93.7416 23.0824 101.039 21.4168 104.946 16.0237L112.174 6.0487Z"  stroke-width="3"/>
</svg>
